# Exported from Figuro at https://www.figuro.io

mtllib test.mtl
o cube65
v -874.1174507636805 -245.28113102237023 -1404.6829430880603
v 637.7012737114576 -245.28113102237023 -1404.6829430880603
v 637.7012737114576 7.329626983428625 -1404.6829430880603
v -874.1174507636805 7.329626983428625 -1404.6829430880603
v 637.7012737114576 -245.28113102237023 125.44482263643795
v 637.7012737114576 7.329626983428625 125.44482263643795
v -874.1174507636805 -245.28113102237023 125.44482263643795
v -874.1174507636805 7.329626983428625 125.44482263643795
# 8 vertices
vt 0.8536303230114067 0.7604676454859666
vt -0.6227551501088453 0.7604676454859666
vt -0.6227551501088453 1.0071578388510045
vt 0.8536303230114067 1.0071578388510045
vt 1.3717606866094338 0.7604676454859666
vt -0.12250470960589643 0.7604676454859666
vt -0.12250470960589643 1.0071578388510045
vt 1.3717606866094338 1.0071578388510045
vt 0.6227551501088453 0.7604676454859666
vt -0.8536303230114067 0.7604676454859666
vt -0.8536303230114067 1.0071578388510045
vt 0.6227551501088453 1.0071578388510045
vt 0.12250470960589643 0.7604676454859666
vt -1.3717606866094338 0.7604676454859666
vt -1.3717606866094338 1.0071578388510045
vt 0.12250470960589643 1.0071578388510045
vt -0.8536303230114067 1.1225047096058964
vt 0.6227551501088453 1.1225047096058964
vt 0.6227551501088453 -0.37176068660943384
vt -0.8536303230114067 -0.37176068660943384
vt -0.8536303230114067 2.371760686609434
vt 0.6227551501088453 2.371760686609434
vt 0.6227551501088453 0.8774952903941036
vt -0.8536303230114067 0.8774952903941036
# 24 uvs
vn -0.3333333333333333 -0.3333333333333333 -0.3333333333333333
vn 0.3333333333333333 -0.3333333333333333 -0.3333333333333333
vn 0.3333333333333333 0.3333333333333333 -0.3333333333333333
vn -0.3333333333333333 0.3333333333333333 -0.3333333333333333
vn 0.3333333333333333 -0.3333333333333333 0.3333333333333333
vn 0.3333333333333333 0.3333333333333333 0.3333333333333333
vn -0.3333333333333333 -0.3333333333333333 0.3333333333333333
vn -0.3333333333333333 0.3333333333333333 0.3333333333333333
# 8 normals
usemtl texture_tiles
f 4/4/4 3/3/3 2/2/2 1/1/1 
f 3/8/3 6/7/6 5/6/5 2/5/2 
f 6/12/6 8/11/8 7/10/7 5/9/5 
f 8/16/8 4/15/4 1/14/1 7/13/7 
f 1/20/1 2/19/2 5/18/5 7/17/7 
f 8/24/8 6/23/6 3/22/3 4/21/4 
# 6 polygons
o new model
v -904.7802063514214 -239.94116939926516 -1607.6743817670124
v 666.657374553095 -239.94116939926516 -1607.6743817670124
v 666.657374553095 1423.305978046591 -1607.6743817670124
v -904.7802063514214 1423.305978046591 -1607.6743817670124
v 666.657374553095 -239.94116939926516 -1423.84924521575
v 666.657374553095 1423.305978046591 -1423.84924521575
v -904.7802063514214 -239.94116939926516 -1423.84924521575
v -904.7802063514214 1423.305978046591 -1423.84924521575
# 8 vertices
vt 3.53429768106024 0.06272980703412046
vt -2.6041303693480273 0.06272980703412046
vt -2.6041303693480273 6.559788976744496
vt 3.53429768106024 6.559788976744496
vt 6.279978053777392 0.06272980703412046
vt 5.561911114124023 0.06272980703412046
vt 5.561911114124023 6.559788976744496
vt 6.279978053777392 6.559788976744496
vt 2.6041303693480273 0.06272980703412046
vt -3.53429768106024 0.06272980703412046
vt -3.53429768106024 6.559788976744496
vt 2.6041303693480273 6.559788976744496
vt -5.561911114124023 0.06272980703412046
vt -6.279978053777392 0.06272980703412046
vt -6.279978053777392 6.559788976744496
vt -5.561911114124023 6.559788976744496
vt -3.53429768106024 -4.561911114124023
vt 2.6041303693480273 -4.561911114124023
vt 2.6041303693480273 -5.279978053777392
vt -3.53429768106024 -5.279978053777392
vt -3.53429768106024 7.279978053777392
vt 2.6041303693480273 7.279978053777392
vt 2.6041303693480273 6.561911114124023
vt -3.53429768106024 6.561911114124023
# 24 uvs
vn -0.3333333333333333 -0.3333333333333333 -0.3333333333333333
vn 0.3333333333333333 -0.3333333333333333 -0.3333333333333333
vn 0.3333333333333333 0.3333333333333333 -0.3333333333333333
vn -0.3333333333333333 0.3333333333333333 -0.3333333333333333
vn 0.3333333333333333 -0.3333333333333333 0.3333333333333333
vn 0.3333333333333333 0.3333333333333333 0.3333333333333333
vn -0.3333333333333333 -0.3333333333333333 0.3333333333333333
vn -0.3333333333333333 0.3333333333333333 0.3333333333333333
# 8 normals
usemtl ea9999
f 12/28/12 11/27/11 10/26/10 9/25/9 
f 11/32/11 14/31/14 13/30/13 10/29/10 
f 14/36/14 16/35/16 15/34/15 13/33/13 
f 16/40/16 12/39/12 9/38/9 15/37/15 
f 9/44/9 10/43/10 13/42/13 15/41/15 
f 16/48/16 14/47/14 11/46/11 12/45/12 
# 6 polygons